# xmcd
#
# Track frame offsets:
#	150
#	15581
#	34318
#	49312
#	58676
#	75103
#	92147
#	107623
#	127026
#	139865
#	161742
#	178369
#	194307
#
# Disc length: 2835 seconds
# Revision: 0
# Processed by: cddbd v1.5.2PL0 Copyright (c) Steve Scherf et al.
# Submitted via: dBpowerAMP V12.0
#
DISCID=b10b110d
DTITLE=The Better Halves - All Over the Map
DYEAR=2014
DGENRE=Americana\\Folk
TTITLE0=For the Birds
TTITLE1=Hole the Size of Texas
TTITLE2='Til the Cows Come Home
TTITLE3=Dizzy Fingers
TTITLE4=The One That Got Away
TTITLE5=Olden Days
TTITLE6=Wish We Could Go Out Tonight
TTITLE7=Alyeska
TTITLE8=Cryin'
TTITLE9=Dear Joshua
TTITLE10=Kentucky Fried Pickin'
TTITLE11=Homegrown Love
TTITLE12=The Window
EXTD=
EXTT0=
EXTT1=
EXTT2=
EXTT3=
EXTT4=
EXTT5=
EXTT6=
EXTT7=
EXTT8=
EXTT9=
EXTT10=
EXTT11=
EXTT12=
PLAYORDER=
